  0
SECTION
  2
HEADER
  9
$ACADVER
  1
AC1009
  9
$DWGCODEPAGE
  3
ansi_1252
  9
$INSBASE
 10
0.0
 20
0.0
 30
0.0
  9
$EXTMIN
 10
-338.8254701905814
 20
-570.8433338861192
 30
0.0
  9
$EXTMAX
 10
978.50482898773
 20
330.4959603674774
 30
0.0
  9
$LIMMIN
 10
0.0
 20
0.0
  9
$LIMMAX
 10
12.0
 20
9.0
  9
$ORTHOMODE
 70
     0
  9
$REGENMODE
 70
     1
  9
$FILLMODE
 70
     1
  9
$QTEXTMODE
 70
     0
  9
$MIRRTEXT
 70
     1
  9
$DRAGMODE
 70
     2
  9
$LTSCALE
 40
1.0
  9
$OSMODE
 70
    37
  9
$ATTMODE
 70
     1
  9
$TEXTSIZE
 40
0.2
  9
$TRACEWID
 40
0.05
  9
$TEXTSTYLE
  7
STANDARD
  9
$CLAYER
  8
0
  9
$CELTYPE
  6
BYLAYER
  9
$CECOLOR
 62
   256
  9
$DIMSCALE
 40
1.0
  9
$DIMASZ
 40
0.18
  9
$DIMEXO
 40
0.0625
  9
$DIMDLI
 40
0.38
  9
$DIMRND
 40
0.0
  9
$DIMDLE
 40
0.0
  9
$DIMEXE
 40
0.18
  9
$DIMTP
 40
0.0
  9
$DIMTM
 40
0.0
  9
$DIMTXT
 40
0.18
  9
$DIMCEN
 40
0.09
  9
$DIMTSZ
 40
0.0
  9
$DIMTOL
 70
     0
  9
$DIMLIM
 70
     0
  9
$DIMTIH
 70
     1
  9
$DIMTOH
 70
     1
  9
$DIMSE1
 70
     0
  9
$DIMSE2
 70
     0
  9
$DIMTAD
 70
     0
  9
$DIMZIN
 70
     0
  9
$DIMBLK
  1

  9
$DIMASO
 70
     1
  9
$DIMSHO
 70
     1
  9
$DIMPOST
  1

  9
$DIMAPOST
  1

  9
$DIMALT
 70
     0
  9
$DIMALTD
 70
     2
  9
$DIMALTF
 40
25.4
  9
$DIMLFAC
 40
1.0
  9
$DIMTOFL
 70
     0
  9
$DIMTVP
 40
0.0
  9
$DIMTIX
 70
     0
  9
$DIMSOXD
 70
     0
  9
$DIMSAH
 70
     0
  9
$DIMBLK1
  1

  9
$DIMBLK2
  1

  9
$DIMSTYLE
  2
STANDARD
  9
$DIMCLRD
 70
     0
  9
$DIMCLRE
 70
     0
  9
$DIMCLRT
 70
     0
  9
$DIMTFAC
 40
1.0
  9
$DIMGAP
 40
0.09
  9
$LUNITS
 70
     2
  9
$LUPREC
 70
     4
  9
$SKETCHINC
 40
0.1
  9
$FILLETRAD
 40
0.5
  9
$AUNITS
 70
     0
  9
$AUPREC
 70
     0
  9
$MENU
  1
.
  9
$ELEVATION
 40
0.0
  9
$PELEVATION
 40
0.0
  9
$THICKNESS
 40
0.0
  9
$LIMCHECK
 70
     0
  9
$CHAMFERA
 40
0.5
  9
$CHAMFERB
 40
0.5
  9
$SKPOLY
 70
     0
  9
$TDCREATE
 40
2454910.5
  9
$TDUPDATE
 40
2461051.717230961
  9
$TDINDWG
 40
0.0000000116
  9
$TDUSRTIMER
 40
0.0000000116
  9
$USRTIMER
 70
     1
  9
$ANGBASE
 50
0.0
  9
$ANGDIR
 70
     0
  9
$PDMODE
 70
     0
  9
$PDSIZE
 40
0.0
  9
$PLINEWID
 40
0.0
  9
$COORDS
 70
     1
  9
$SPLFRAME
 70
     0
  9
$SPLINETYPE
 70
     6
  9
$SPLINESEGS
 70
     8
  9
$ATTDIA
 70
     0
  9
$ATTREQ
 70
     1
  9
$HANDLING
 70
     1
  9
$HANDSEED
  5
2D0
  9
$SURFTAB1
 70
     6
  9
$SURFTAB2
 70
     6
  9
$SURFTYPE
 70
     6
  9
$SURFU
 70
     6
  9
$SURFV
 70
     6
  9
$UCSNAME
  2

  9
$UCSORG
 10
0.0
 20
0.0
 30
0.0
  9
$UCSXDIR
 10
1.0
 20
0.0
 30
0.0
  9
$UCSYDIR
 10
0.0
 20
1.0
 30
0.0
  9
$PUCSNAME
  2

  9
$PUCSORG
 10
0.0
 20
0.0
 30
0.0
  9
$PUCSXDIR
 10
1.0
 20
0.0
 30
0.0
  9
$PUCSYDIR
 10
0.0
 20
1.0
 30
0.0
  9
$USERI1
 70
     0
  9
$USERI2
 70
     0
  9
$USERI3
 70
     0
  9
$USERI4
 70
     0
  9
$USERI5
 70
     0
  9
$USERR1
 40
0.0
  9
$USERR2
 40
0.0
  9
$USERR3
 40
0.0
  9
$USERR4
 40
0.0
  9
$USERR5
 40
0.0
  9
$WORLDVIEW
 70
     1
  9
$SHADEDGE
 70
     3
  9
$SHADEDIF
 70
    70
  9
$TILEMODE
 70
     1
  9
$MAXACTVP
 70
    64
  9
$PLIMCHECK
 70
     0
  9
$PEXTMIN
 10
1.000000000000000E+20
 20
1.000000000000000E+20
 30
1.000000000000000E+20
  9
$PEXTMAX
 10
-1.000000000000000E+20
 20
-1.000000000000000E+20
 30
-1.000000000000000E+20
  9
$PLIMMIN
 10
0.0
 20
0.0
  9
$PLIMMAX
 10
12.0
 20
9.0
  9
$UNITMODE
 70
     0
  9
$VISRETAIN
 70
     1
  9
$PLINEGEN
 70
     0
  9
$PSLTSCALE
 70
     1
  0
ENDSEC
  0
SECTION
  2
TABLES
  0
TABLE
  2
VPORT
 70
     1
  0
VPORT
  2
*ACTIVE
 70
     0
 10
0.0
 20
0.0
 11
1.0
 21
1.0
 12
10.42990654205607
 22
4.5
 13
0.0
 23
0.0
 14
0.5
 24
0.5
 15
0.5
 25
0.5
 16
0.0
 26
0.0
 36
1.0
 17
0.0
 27
0.0
 37
0.0
 40
9.0
 41
1.972972972850329
 42
50.0
 43
0.0
 44
0.0
 50
0.0
 51
0.0
 71
     0
 72
   100
 73
     1
 74
     3
 75
     0
 76
     0
 77
     0
 78
     0
  0
ENDTAB
  0
TABLE
  2
LTYPE
 70
     2
  0
LTYPE
  2
CONTINUOUS
 70
     0
  3
Solid line
 72
    65
 73
     0
 40
0.0
  0
LTYPE
  2
CONTINUOUS2
 70
     0
  3
Solid Line
 72
    65
 73
     0
 40
0.0
  0
ENDTAB
  0
TABLE
  2
LAYER
 70
     2
  0
LAYER
  2
0
 70
     0
 62
     7
  6
CONTINUOUS
  0
LAYER
  2
LAYER_1
 70
     0
 62
    18
  6
CONTINUOUS
  0
ENDTAB
  0
TABLE
  2
STYLE
 70
     1
  0
STYLE
  2
STANDARD
 70
     0
 40
0.0
 41
1.0
 50
0.0
 71
     0
 42
0.2
  3
txt
  4

  0
ENDTAB
  0
TABLE
  2
VIEW
 70
     0
  0
ENDTAB
  0
TABLE
  2
UCS
 70
     0
  0
ENDTAB
  0
TABLE
  2
APPID
 70
     1
  0
APPID
  2
ACAD
 70
     0
  0
ENDTAB
  0
TABLE
  2
DIMSTYLE
 70
     1
  0
DIMSTYLE
  2
STANDARD
 70
     0
  3

  4

  5

  6

  7

 40
1.0
 41
0.18
 42
0.0625
 43
0.38
 44
0.18
 45
0.0
 46
0.0
 47
0.0
 48
0.0
140
0.18
141
0.09
142
0.0
143
25.4
144
1.0
145
0.0
146
1.0
147
0.09
 71
     0
 72
     0
 73
     1
 74
     1
 75
     0
 76
     0
 77
     0
 78
     0
170
     0
171
     2
172
     0
173
     0
174
     0
175
     0
176
     0
177
     0
178
     0
  0
ENDTAB
  0
ENDSEC
  0
SECTION
  2
BLOCKS
  0
BLOCK
  8
0
  2
$MODEL_SPACE
 70
     0
 10
0.0
 20
0.0
 30
0.0
  3
$MODEL_SPACE
  1

  0
ENDBLK
  5
21
  8
0
  0
BLOCK
 67
     1
  8
0
  2
$PAPER_SPACE
 70
     0
 10
0.0
 20
0.0
 30
0.0
  3
$PAPER_SPACE
  1

  0
ENDBLK
  5
1D
 67
     1
  8
0
  0
ENDSEC
  0
SECTION
  2
ENTITIES
  0
POLYLINE
  5
41
  8
LAYER_1
 66
     1
 10
0.0
 20
0.0
 30
0.0
 70
     1
  0
VERTEX
  5
DF
  8
LAYER_1
 10
-337.0092575809981
 20
-44.02760134201461
 30
0.0
  0
VERTEX
  5
E0
  8
LAYER_1
 10
-257.0092575809981
 20
-44.02760134201461
 30
0.0
  0
VERTEX
  5
E1
  8
LAYER_1
 10
-257.0092575809981
 20
35.97239865798539
 30
0.0
  0
VERTEX
  5
E2
  8
LAYER_1
 10
-337.0092575809981
 20
35.97239865798539
 30
0.0
  0
SEQEND
  5
E3
  8
LAYER_1
  0
POLYLINE
  5
42
  8
LAYER_1
 66
     1
 10
0.0
 20
0.0
 30
0.0
  0
VERTEX
  5
E4
  8
LAYER_1
 10
-337.0092575809981
 20
-44.02760134201461
 30
0.0
  0
VERTEX
  5
E5
  8
LAYER_1
 10
-257.0092575809981
 20
35.97239865798539
 30
0.0
  0
SEQEND
  5
E6
  8
LAYER_1
  0
POLYLINE
  5
43
  8
LAYER_1
 66
     1
 10
0.0
 20
0.0
 30
0.0
  0
VERTEX
  5
E7
  8
LAYER_1
 10
-297.0092575809981
 20
-44.02760134201461
 30
0.0
  0
VERTEX
  5
E8
  8
LAYER_1
 10
-257.0092575809981
 20
-4.027601342014606
 30
0.0
  0
SEQEND
  5
E9
  8
LAYER_1
  0
POLYLINE
  5
44
  8
LAYER_1
 66
     1
 10
0.0
 20
0.0
 30
0.0
  0
VERTEX
  5
EA
  8
LAYER_1
 10
-317.0092575809981
 20
-24.02760134201461
 30
0.0
  0
VERTEX
  5
EB
  8
LAYER_1
 10
-277.0092575809981
 20
-24.02760134201461
 30
0.0
  0
SEQEND
  5
EC
  8
LAYER_1
  0
POLYLINE
  5
45
  8
LAYER_1
 66
     1
 10
0.0
 20
0.0
 30
0.0
  0
VERTEX
  5
ED
  8
LAYER_1
 10
-337.0092575809981
 20
35.97239865798539
 30
0.0
  0
VERTEX
  5
EE
  8
LAYER_1
 10
-277.0092575809981
 20
-24.02760134201461
 30
0.0
  0
SEQEND
  5
EF
  8
LAYER_1
  0
POLYLINE
  5
46
  8
LAYER_1
 66
     1
 10
0.0
 20
0.0
 30
0.0
  0
VERTEX
  5
F0
  8
LAYER_1
 10
-277.0092575809981
 20
15.97239865798539
 30
0.0
  0
VERTEX
  5
F1
  8
LAYER_1
 10
-257.0092575809981
 20
-4.027601342014606
 30
0.0
  0
SEQEND
  5
F2
  8
LAYER_1
  0
POLYLINE
  5
47
  8
LAYER_1
 66
     1
 10
0.0
 20
0.0
 30
0.0
 70
     1
  0
VERTEX
  5
F3
  8
LAYER_1
 10
-141.0619743013738
 20
30.9040566061179
 30
0.0
  0
VERTEX
  5
F4
  8
LAYER_1
 10
-61.06197430137377
 20
30.9040566061179
 30
0.0
  0
VERTEX
  5
F5
  8
LAYER_1
 10
-61.06197430137377
 20
110.9040566061179
 30
0.0
  0
VERTEX
  5
F6
  8
LAYER_1
 10
-141.0619743013738
 20
110.9040566061179
 30
0.0
  0
SEQEND
  5
F7
  8
LAYER_1
  0
POLYLINE
  5
48
  8
LAYER_1
 66
     1
 10
0.0
 20
0.0
 30
0.0
  0
VERTEX
  5
F8
  8
LAYER_1
 10
-141.0619743013738
 20
30.9040566061179
 30
0.0
  0
VERTEX
  5
F9
  8
LAYER_1
 10
-61.06197430137377
 20
110.9040566061179
 30
0.0
  0
SEQEND
  5
FA
  8
LAYER_1
  0
POLYLINE
  5
49
  8
LAYER_1
 66
     1
 10
0.0
 20
0.0
 30
0.0
  0
VERTEX
  5
FB
  8
LAYER_1
 10
-101.0619743013738
 20
30.9040566061179
 30
0.0
  0
VERTEX
  5
FC
  8
LAYER_1
 10
-61.06197430137377
 20
70.9040566061179
 30
0.0
  0
SEQEND
  5
FD
  8
LAYER_1
  0
POLYLINE
  5
4A
  8
LAYER_1
 66
     1
 10
0.0
 20
0.0
 30
0.0
  0
VERTEX
  5
FE
  8
LAYER_1
 10
-121.0619743013738
 20
50.9040566061179
 30
0.0
  0
VERTEX
  5
FF
  8
LAYER_1
 10
-81.06197430137377
 20
50.9040566061179
 30
0.0
  0
SEQEND
  5
100
  8
LAYER_1
  0
POLYLINE
  5
4B
  8
LAYER_1
 66
     1
 10
0.0
 20
0.0
 30
0.0
  0
VERTEX
  5
101
  8
LAYER_1
 10
-141.0619743013738
 20
110.9040566061179
 30
0.0
  0
VERTEX
  5
102
  8
LAYER_1
 10
-81.06197430137377
 20
50.9040566061179
 30
0.0
  0
SEQEND
  5
103
  8
LAYER_1
  0
POLYLINE
  5
4C
  8
LAYER_1
 66
     1
 10
0.0
 20
0.0
 30
0.0
  0
VERTEX
  5
104
  8
LAYER_1
 10
-81.06197430137377
 20
90.9040566061179
 30
0.0
  0
VERTEX
  5
105
  8
LAYER_1
 10
-61.06197430137377
 20
70.9040566061179
 30
0.0
  0
SEQEND
  5
106
  8
LAYER_1
  0
POLYLINE
  5
4D
  8
LAYER_1
 66
     1
 10
0.0
 20
0.0
 30
0.0
 70
     1
  0
VERTEX
  5
107
  8
LAYER_1
 10
-338.8254701905814
 20
157.0128947963017
 30
0.0
  0
VERTEX
  5
108
  8
LAYER_1
 10
-258.8254701905814
 20
157.0128947963017
 30
0.0
  0
VERTEX
  5
109
  8
LAYER_1
 10
-258.8254701905814
 20
237.0128947963017
 30
0.0
  0
VERTEX
  5
10A
  8
LAYER_1
 10
-338.8254701905814
 20
237.0128947963017
 30
0.0
  0
SEQEND
  5
10B
  8
LAYER_1
  0
POLYLINE
  5
4E
  8
LAYER_1
 66
     1
 10
0.0
 20
0.0
 30
0.0
  0
VERTEX
  5
10C
  8
LAYER_1
 10
-338.8254701905814
 20
157.0128947963017
 30
0.0
  0
VERTEX
  5
10D
  8
LAYER_1
 10
-258.8254701905814
 20
237.0128947963017
 30
0.0
  0
SEQEND
  5
10E
  8
LAYER_1
  0
POLYLINE
  5
4F
  8
LAYER_1
 66
     1
 10
0.0
 20
0.0
 30
0.0
  0
VERTEX
  5
10F
  8
LAYER_1
 10
-258.8254701905814
 20
157.0128947963017
 30
0.0
  0
VERTEX
  5
110
  8
LAYER_1
 10
-338.8254701905814
 20
237.0128947963017
 30
0.0
  0
SEQEND
  5
111
  8
LAYER_1
  0
POLYLINE
  5
50
  8
LAYER_1
 66
     1
 10
0.0
 20
0.0
 30
0.0
 70
     1
  0
VERTEX
  5
112
  8
LAYER_1
 10
399.5902032208591
 20
-268.7404141104295
 30
0.0
  0
VERTEX
  5
113
  8
LAYER_1
 10
799.5902032208589
 20
-268.7404141104295
 30
0.0
  0
VERTEX
  5
114
  8
LAYER_1
 10
799.5902032208589
 20
-28.74041411042947
 30
0.0
  0
VERTEX
  5
115
  8
LAYER_1
 10
399.5902032208591
 20
-28.74041411042947
 30
0.0
  0
SEQEND
  5
116
  8
LAYER_1
  0
POLYLINE
  5
51
  8
LAYER_1
 66
     1
 10
0.0
 20
0.0
 30
0.0
  0
VERTEX
  5
117
  8
LAYER_1
 10
479.5902032208589
 20
-268.7404141104295
 30
0.0
  0
VERTEX
  5
118
  8
LAYER_1
 10
399.5902032208591
 20
-188.7404141104295
 30
0.0
  0
SEQEND
  5
119
  8
LAYER_1
  0
POLYLINE
  5
52
  8
LAYER_1
 66
     1
 10
0.0
 20
0.0
 30
0.0
  0
VERTEX
  5
11A
  8
LAYER_1
 10
399.5902032208591
 20
-188.7404141104295
 30
0.0
  0
VERTEX
  5
11B
  8
LAYER_1
 10
799.5902032208589
 20
-188.7404141104295
 30
0.0
  0
SEQEND
  5
11C
  8
LAYER_1
  0
POLYLINE
  5
53
  8
LAYER_1
 66
     1
 10
0.0
 20
0.0
 30
0.0
  0
VERTEX
  5
11D
  8
LAYER_1
 10
399.5902032208591
 20
-108.7404141104295
 30
0.0
  0
VERTEX
  5
11E
  8
LAYER_1
 10
799.5902032208589
 20
-108.7404141104295
 30
0.0
  0
SEQEND
  5
11F
  8
LAYER_1
  0
POLYLINE
  5
54
  8
LAYER_1
 66
     1
 10
0.0
 20
0.0
 30
0.0
  0
VERTEX
  5
120
  8
LAYER_1
 10
479.5902032208589
 20
-268.7404141104295
 30
0.0
  0
VERTEX
  5
121
  8
LAYER_1
 10
479.5902032208589
 20
-28.74041411042947
 30
0.0
  0
SEQEND
  5
122
  8
LAYER_1
  0
POLYLINE
  5
55
  8
LAYER_1
 66
     1
 10
0.0
 20
0.0
 30
0.0
  0
VERTEX
  5
123
  8
LAYER_1
 10
559.5902032208589
 20
-268.7404141104295
 30
0.0
  0
VERTEX
  5
124
  8
LAYER_1
 10
559.5902032208589
 20
-28.74041411042947
 30
0.0
  0
SEQEND
  5
125
  8
LAYER_1
  0
POLYLINE
  5
56
  8
LAYER_1
 66
     1
 10
0.0
 20
0.0
 30
0.0
  0
VERTEX
  5
126
  8
LAYER_1
 10
639.5902032208589
 20
-268.7404141104295
 30
0.0
  0
VERTEX
  5
127
  8
LAYER_1
 10
639.5902032208589
 20
-28.74041411042947
 30
0.0
  0
SEQEND
  5
128
  8
LAYER_1
  0
POLYLINE
  5
57
  8
LAYER_1
 66
     1
 10
0.0
 20
0.0
 30
0.0
  0
VERTEX
  5
129
  8
LAYER_1
 10
719.5902032208589
 20
-268.7404141104295
 30
0.0
  0
VERTEX
  5
12A
  8
LAYER_1
 10
719.5902032208589
 20
-28.74041411042947
 30
0.0
  0
SEQEND
  5
12B
  8
LAYER_1
  0
POLYLINE
  5
58
  8
LAYER_1
 66
     1
 10
0.0
 20
0.0
 30
0.0
  0
VERTEX
  5
12C
  8
LAYER_1
 10
639.5902032208594
 20
-28.74041411042936
 30
0.0
  0
VERTEX
  5
12D
  8
LAYER_1
 10
399.5902032208591
 20
-268.7404141104295
 30
0.0
  0
SEQEND
  5
12E
  8
LAYER_1
  0
POLYLINE
  5
59
  8
LAYER_1
 66
     1
 10
0.0
 20
0.0
 30
0.0
  0
VERTEX
  5
12F
  8
LAYER_1
 10
559.5902032208589
 20
-268.7404141104295
 30
0.0
  0
VERTEX
  5
130
  8
LAYER_1
 10
399.5902032208591
 20
-108.7404141104296
 30
0.0
  0
SEQEND
  5
131
  8
LAYER_1
  0
POLYLINE
  5
5A
  8
LAYER_1
 66
     1
 10
0.0
 20
0.0
 30
0.0
  0
VERTEX
  5
132
  8
LAYER_1
 10
639.5902032208589
 20
-268.7404141104295
 30
0.0
  0
VERTEX
  5
133
  8
LAYER_1
 10
399.5902032208591
 20
-28.7404141104297
 30
0.0
  0
SEQEND
  5
134
  8
LAYER_1
  0
POLYLINE
  5
5B
  8
LAYER_1
 66
     1
 10
0.0
 20
0.0
 30
0.0
  0
VERTEX
  5
135
  8
LAYER_1
 10
719.5902032208589
 20
-268.7404141104295
 30
0.0
  0
VERTEX
  5
136
  8
LAYER_1
 10
479.5902032208589
 20
-28.74041411042947
 30
0.0
  0
SEQEND
  5
137
  8
LAYER_1
  0
POLYLINE
  5
5C
  8
LAYER_1
 66
     1
 10
0.0
 20
0.0
 30
0.0
  0
VERTEX
  5
138
  8
LAYER_1
 10
799.5902032208589
 20
-268.7404141104295
 30
0.0
  0
VERTEX
  5
139
  8
LAYER_1
 10
559.5902032208589
 20
-28.74041411042947
 30
0.0
  0
SEQEND
  5
13A
  8
LAYER_1
  0
POLYLINE
  5
5D
  8
LAYER_1
 66
     1
 10
0.0
 20
0.0
 30
0.0
  0
VERTEX
  5
13B
  8
LAYER_1
 10
719.5902032208594
 20
-28.74041411042936
 30
0.0
  0
VERTEX
  5
13C
  8
LAYER_1
 10
479.5902032208589
 20
-268.7404141104295
 30
0.0
  0
SEQEND
  5
13D
  8
LAYER_1
  0
POLYLINE
  5
5E
  8
LAYER_1
 66
     1
 10
0.0
 20
0.0
 30
0.0
  0
VERTEX
  5
13E
  8
LAYER_1
 10
799.5902032208594
 20
-28.74041411042936
 30
0.0
  0
VERTEX
  5
13F
  8
LAYER_1
 10
559.5902032208589
 20
-268.7404141104295
 30
0.0
  0
SEQEND
  5
140
  8
LAYER_1
  0
POLYLINE
  5
5F
  8
LAYER_1
 66
     1
 10
0.0
 20
0.0
 30
0.0
  0
VERTEX
  5
141
  8
LAYER_1
 10
799.5902032208594
 20
-188.7404141104294
 30
0.0
  0
VERTEX
  5
142
  8
LAYER_1
 10
719.5902032208589
 20
-268.7404141104295
 30
0.0
  0
SEQEND
  5
143
  8
LAYER_1
  0
POLYLINE
  5
60
  8
LAYER_1
 66
     1
 10
0.0
 20
0.0
 30
0.0
  0
VERTEX
  5
144
  8
LAYER_1
 10
799.5902032208592
 20
-108.7404141104295
 30
0.0
  0
VERTEX
  5
145
  8
LAYER_1
 10
639.5902032208589
 20
-268.7404141104295
 30
0.0
  0
SEQEND
  5
146
  8
LAYER_1
  0
POLYLINE
  5
61
  8
LAYER_1
 66
     1
 10
0.0
 20
0.0
 30
0.0
  0
VERTEX
  5
147
  8
LAYER_1
 10
719.5902032208587
 20
-28.74041411042913
 30
0.0
  0
VERTEX
  5
148
  8
LAYER_1
 10
799.5902032208589
 20
-108.7404141104295
 30
0.0
  0
SEQEND
  5
149
  8
LAYER_1
  0
POLYLINE
  5
62
  8
LAYER_1
 66
     1
 10
0.0
 20
0.0
 30
0.0
  0
VERTEX
  5
14A
  8
LAYER_1
 10
639.5902032208589
 20
-28.74041411042947
 30
0.0
  0
VERTEX
  5
14B
  8
LAYER_1
 10
799.5902032208589
 20
-188.7404141104295
 30
0.0
  0
SEQEND
  5
14C
  8
LAYER_1
  0
POLYLINE
  5
63
  8
LAYER_1
 66
     1
 10
0.0
 20
0.0
 30
0.0
  0
VERTEX
  5
14D
  8
LAYER_1
 10
559.5902032208592
 20
-28.74041411042947
 30
0.0
  0
VERTEX
  5
14E
  8
LAYER_1
 10
399.5902032208591
 20
-188.7404141104295
 30
0.0
  0
SEQEND
  5
14F
  8
LAYER_1
  0
POLYLINE
  5
64
  8
LAYER_1
 66
     1
 10
0.0
 20
0.0
 30
0.0
  0
VERTEX
  5
150
  8
LAYER_1
 10
479.5902032208589
 20
-28.74041411042947
 30
0.0
  0
VERTEX
  5
151
  8
LAYER_1
 10
399.5902032208591
 20
-108.7404141104295
 30
0.0
  0
SEQEND
  5
152
  8
LAYER_1
  0
POLYLINE
  5
65
  8
LAYER_1
 66
     1
 10
0.0
 20
0.0
 30
0.0
 70
     1
  0
VERTEX
  5
153
  8
LAYER_1
 10
833.9710274641205
 20
-296.366471922929
 30
0.0
  0
VERTEX
  5
154
  8
LAYER_1
 10
975.3910274641205
 20
-296.366471922929
 30
0.0
  0
VERTEX
  5
155
  8
LAYER_1
 10
975.3910274641205
 20
-211.514471922929
 30
0.0
  0
VERTEX
  5
156
  8
LAYER_1
 10
833.9710274641205
 20
-211.514471922929
 30
0.0
  0
SEQEND
  5
157
  8
LAYER_1
  0
POLYLINE
  5
66
  8
LAYER_1
 66
     1
 10
0.0
 20
0.0
 30
0.0
  0
VERTEX
  5
158
  8
LAYER_1
 10
833.9710274641205
 20
-268.082471922929
 30
0.0
  0
VERTEX
  5
159
  8
LAYER_1
 10
975.3910274641205
 20
-268.082471922929
 30
0.0
  0
SEQEND
  5
15A
  8
LAYER_1
  0
POLYLINE
  5
67
  8
LAYER_1
 66
     1
 10
0.0
 20
0.0
 30
0.0
  0
VERTEX
  5
15B
  8
LAYER_1
 10
833.9710274641205
 20
-239.798471922929
 30
0.0
  0
VERTEX
  5
15C
  8
LAYER_1
 10
975.3910274641205
 20
-239.798471922929
 30
0.0
  0
SEQEND
  5
15D
  8
LAYER_1
  0
POLYLINE
  5
68
  8
LAYER_1
 66
     1
 10
0.0
 20
0.0
 30
0.0
  0
VERTEX
  5
15E
  8
LAYER_1
 10
862.2550274641205
 20
-296.366471922929
 30
0.0
  0
VERTEX
  5
15F
  8
LAYER_1
 10
862.2550274641205
 20
-211.514471922929
 30
0.0
  0
SEQEND
  5
160
  8
LAYER_1
  0
POLYLINE
  5
69
  8
LAYER_1
 66
     1
 10
0.0
 20
0.0
 30
0.0
  0
VERTEX
  5
161
  8
LAYER_1
 10
890.5390274641205
 20
-296.366471922929
 30
0.0
  0
VERTEX
  5
162
  8
LAYER_1
 10
890.5390274641205
 20
-211.514471922929
 30
0.0
  0
SEQEND
  5
163
  8
LAYER_1
  0
POLYLINE
  5
6A
  8
LAYER_1
 66
     1
 10
0.0
 20
0.0
 30
0.0
  0
VERTEX
  5
164
  8
LAYER_1
 10
918.8230274641205
 20
-296.366471922929
 30
0.0
  0
VERTEX
  5
165
  8
LAYER_1
 10
918.8230274641205
 20
-211.514471922929
 30
0.0
  0
SEQEND
  5
166
  8
LAYER_1
  0
POLYLINE
  5
6B
  8
LAYER_1
 66
     1
 10
0.0
 20
0.0
 30
0.0
  0
VERTEX
  5
167
  8
LAYER_1
 10
947.1070274641204
 20
-296.366471922929
 30
0.0
  0
VERTEX
  5
168
  8
LAYER_1
 10
947.1070274641204
 20
-211.514471922929
 30
0.0
  0
SEQEND
  5
169
  8
LAYER_1
  0
POLYLINE
  5
6C
  8
LAYER_1
 66
     1
 10
0.0
 20
0.0
 30
0.0
  0
VERTEX
  5
16A
  8
LAYER_1
 10
837.08482898773
 20
-163.1884728483779
 30
0.0
  0
VERTEX
  5
16B
  8
LAYER_1
 10
978.50482898773
 20
-163.1884728483779
 30
0.0
  0
SEQEND
  5
16C
  8
LAYER_1
  0
POLYLINE
  5
6D
  8
LAYER_1
 66
     1
 10
0.0
 20
0.0
 30
0.0
  0
VERTEX
  5
16D
  8
LAYER_1
 10
837.08482898773
 20
-134.9044728483779
 30
0.0
  0
VERTEX
  5
16E
  8
LAYER_1
 10
978.50482898773
 20
-134.9044728483779
 30
0.0
  0
SEQEND
  5
16F
  8
LAYER_1
  0
POLYLINE
  5
6E
  8
LAYER_1
 66
     1
 10
0.0
 20
0.0
 30
0.0
  0
VERTEX
  5
170
  8
LAYER_1
 10
865.36882898773
 20
-191.4724728483779
 30
0.0
  0
VERTEX
  5
171
  8
LAYER_1
 10
865.36882898773
 20
-106.6204728483779
 30
0.0
  0
SEQEND
  5
172
  8
LAYER_1
  0
POLYLINE
  5
6F
  8
LAYER_1
 66
     1
 10
0.0
 20
0.0
 30
0.0
  0
VERTEX
  5
173
  8
LAYER_1
 10
893.65282898773
 20
-191.4724728483779
 30
0.0
  0
VERTEX
  5
174
  8
LAYER_1
 10
893.65282898773
 20
-106.6204728483779
 30
0.0
  0
SEQEND
  5
175
  8
LAYER_1
  0
POLYLINE
  5
70
  8
LAYER_1
 66
     1
 10
0.0
 20
0.0
 30
0.0
  0
VERTEX
  5
176
  8
LAYER_1
 10
921.93682898773
 20
-191.4724728483779
 30
0.0
  0
VERTEX
  5
177
  8
LAYER_1
 10
921.93682898773
 20
-106.6204728483779
 30
0.0
  0
SEQEND
  5
178
  8
LAYER_1
  0
POLYLINE
  5
71
  8
LAYER_1
 66
     1
 10
0.0
 20
0.0
 30
0.0
  0
VERTEX
  5
179
  8
LAYER_1
 10
950.22082898773
 20
-191.4724728483779
 30
0.0
  0
VERTEX
  5
17A
  8
LAYER_1
 10
950.22082898773
 20
-106.6204728483779
 30
0.0
  0
SEQEND
  5
17B
  8
LAYER_1
  0
POLYLINE
  5
72
  8
LAYER_1
 66
     1
 10
0.0
 20
0.0
 30
0.0
  0
VERTEX
  5
17C
  8
LAYER_1
 10
837.08482898773
 20
-78.33647284837792
 30
0.0
  0
VERTEX
  5
17D
  8
LAYER_1
 10
978.50482898773
 20
-78.33647284837792
 30
0.0
  0
SEQEND
  5
17E
  8
LAYER_1
  0
POLYLINE
  5
73
  8
LAYER_1
 66
     1
 10
0.0
 20
0.0
 30
0.0
  0
VERTEX
  5
17F
  8
LAYER_1
 10
837.08482898773
 20
-50.05247284837793
 30
0.0
  0
VERTEX
  5
180
  8
LAYER_1
 10
978.50482898773
 20
-50.05247284837793
 30
0.0
  0
SEQEND
  5
181
  8
LAYER_1
  0
POLYLINE
  5
74
  8
LAYER_1
 66
     1
 10
0.0
 20
0.0
 30
0.0
  0
VERTEX
  5
182
  8
LAYER_1
 10
865.36882898773
 20
-106.6204728483779
 30
0.0
  0
VERTEX
  5
183
  8
LAYER_1
 10
865.36882898773
 20
-21.768472848378
 30
0.0
  0
SEQEND
  5
184
  8
LAYER_1
  0
POLYLINE
  5
75
  8
LAYER_1
 66
     1
 10
0.0
 20
0.0
 30
0.0
  0
VERTEX
  5
185
  8
LAYER_1
 10
893.65282898773
 20
-106.6204728483779
 30
0.0
  0
VERTEX
  5
186
  8
LAYER_1
 10
893.65282898773
 20
-21.768472848378
 30
0.0
  0
SEQEND
  5
187
  8
LAYER_1
  0
POLYLINE
  5
76
  8
LAYER_1
 66
     1
 10
0.0
 20
0.0
 30
0.0
  0
VERTEX
  5
188
  8
LAYER_1
 10
921.93682898773
 20
-106.6204728483779
 30
0.0
  0
VERTEX
  5
189
  8
LAYER_1
 10
921.93682898773
 20
-21.768472848378
 30
0.0
  0
SEQEND
  5
18A
  8
LAYER_1
  0
POLYLINE
  5
77
  8
LAYER_1
 66
     1
 10
0.0
 20
0.0
 30
0.0
  0
VERTEX
  5
18B
  8
LAYER_1
 10
950.22082898773
 20
-106.6204728483779
 30
0.0
  0
VERTEX
  5
18C
  8
LAYER_1
 10
950.22082898773
 20
-21.768472848378
 30
0.0
  0
SEQEND
  5
18D
  8
LAYER_1
  0
POLYLINE
  5
78
  8
LAYER_1
 66
     1
 10
0.0
 20
0.0
 30
0.0
  0
VERTEX
  5
18E
  8
LAYER_1
 10
837.08482898773
 20
-106.6204728483779
 30
0.0
  0
VERTEX
  5
18F
  8
LAYER_1
 10
978.50482898773
 20
-106.6204728483779
 30
0.0
  0
SEQEND
  5
190
  8
LAYER_1
  0
POLYLINE
  5
79
  8
LAYER_1
 66
     1
 10
0.0
 20
0.0
 30
0.0
 70
     1
  0
VERTEX
  5
191
  8
LAYER_1
 10
837.08482898773
 20
-106.6204728483779
 30
0.0
  0
VERTEX
  5
192
  8
LAYER_1
 10
837.08482898773
 20
-191.4724728483779
 30
0.0
  0
VERTEX
  5
193
  8
LAYER_1
 10
978.50482898773
 20
-191.4724728483779
 30
0.0
  0
VERTEX
  5
194
  8
LAYER_1
 10
978.50482898773
 20
-106.6204728483779
 30
0.0
  0
VERTEX
  5
195
  8
LAYER_1
 10
978.50482898773
 20
-21.768472848378
 30
0.0
  0
VERTEX
  5
196
  8
LAYER_1
 10
837.08482898773
 20
-21.768472848378
 30
0.0
  0
SEQEND
  5
197
  8
LAYER_1
  0
POLYLINE
  5
7A
  8
LAYER_1
 66
     1
 10
0.0
 20
0.0
 30
0.0
  0
VERTEX
  5
198
  8
LAYER_1
 10
-160.6028033262037
 20
113.8089166130855
 30
0.0
  0
VERTEX
  5
199
  8
LAYER_1
 10
-160.6028033262037
 20
85.52464536562357
 30
0.0
  0
SEQEND
  5
19A
  8
LAYER_1
  0
POLYLINE
  5
7B
  8
LAYER_1
 66
     1
 10
0.0
 20
0.0
 30
0.0
  0
VERTEX
  5
19B
  8
LAYER_1
 10
-188.8870745736656
 20
113.8089166130855
 30
0.0
  0
VERTEX
  5
19C
  8
LAYER_1
 10
-160.6028033262037
 20
113.8089166130855
 30
0.0
  0
SEQEND
  5
19D
  8
LAYER_1
  0
POLYLINE
  5
7C
  8
LAYER_1
 66
     1
 10
0.0
 20
0.0
 30
0.0
  0
VERTEX
  5
19E
  8
LAYER_1
 10
-188.8870745736656
 20
85.52464536562357
 30
0.0
  0
VERTEX
  5
19F
  8
LAYER_1
 10
-160.6028033262037
 20
85.52464536562357
 30
0.0
  0
SEQEND
  5
1A0
  8
LAYER_1
  0
POLYLINE
  5
7D
  8
LAYER_1
 66
     1
 10
0.0
 20
0.0
 30
0.0
  0
VERTEX
  5
1A1
  8
LAYER_1
 10
-188.8870745736656
 20
85.52464536562357
 30
0.0
  0
VERTEX
  5
1A2
  8
LAYER_1
 10
-188.8870745736656
 20
113.8089166130854
 30
0.0
  0
SEQEND
  5
1A3
  8
LAYER_1
  0
POLYLINE
  5
7E
  8
LAYER_1
 66
     1
 10
0.0
 20
0.0
 30
0.0
 70
     1
  0
VERTEX
  5
1A4
  8
LAYER_1
 10
-111.8078023547128
 20
212.0737670616856
 30
0.0
  0
VERTEX
  5
1A5
  8
LAYER_1
 10
-83.5235311072509
 20
212.0737670616856
 30
0.0
  0
VERTEX
  5
1A6
  8
LAYER_1
 10
-83.5235311072509
 20
183.7894958142237
 30
0.0
  0
VERTEX
  5
1A7
  8
LAYER_1
 10
-111.8078023547128
 20
183.7894958142237
 30
0.0
  0
SEQEND
  5
1A8
  8
LAYER_1
  0
POLYLINE
  5
7F
  8
LAYER_1
 66
     1
 10
0.0
 20
0.0
 30
0.0
 70
     1
  0
VERTEX
  5
1A9
  8
LAYER_1
 10
-52.77770305391155
 20
245.2971660437634
 30
0.0
  0
VERTEX
  5
1AA
  8
LAYER_1
 10
-52.77770305391155
 20
217.0128947963014
 30
0.0
  0
VERTEX
  5
1AB
  8
LAYER_1
 10
-81.06197430137348
 20
217.0128947963015
 30
0.0
  0
SEQEND
  5
1AC
  8
LAYER_1
  0
POLYLINE
  5
80
  8
LAYER_1
 66
     1
 10
0.0
 20
0.0
 30
0.0
 70
     1
  0
VERTEX
  5
1AD
  8
LAYER_1
 10
-337.7680013252004
 20
56.89543433512236
 30
0.0
  0
VERTEX
  5
1AE
  8
LAYER_1
 10
-257.7680013252004
 20
56.89543433512236
 30
0.0
  0
VERTEX
  5
1AF
  8
LAYER_1
 10
-257.7680013252004
 20
136.8954343351224
 30
0.0
  0
VERTEX
  5
1B0
  8
LAYER_1
 10
-337.7680013252004
 20
136.8954343351224
 30
0.0
  0
SEQEND
  5
1B1
  8
LAYER_1
  0
POLYLINE
  5
81
  8
LAYER_1
 66
     1
 10
0.0
 20
0.0
 30
0.0
  0
VERTEX
  5
1B2
  8
LAYER_1
 10
-337.7680013252004
 20
56.89543433512236
 30
0.0
  0
VERTEX
  5
1B3
  8
LAYER_1
 10
-257.7680013252004
 20
136.8954343351224
 30
0.0
  0
SEQEND
  5
1B4
  8
LAYER_1
  0
POLYLINE
  5
82
  8
LAYER_1
 66
     1
 10
0.0
 20
0.0
 30
0.0
  0
VERTEX
  5
1B5
  8
LAYER_1
 10
-297.7680013252004
 20
56.89543433512236
 30
0.0
  0
VERTEX
  5
1B6
  8
LAYER_1
 10
-257.7680013252004
 20
96.89543433512236
 30
0.0
  0
SEQEND
  5
1B7
  8
LAYER_1
  0
POLYLINE
  5
83
  8
LAYER_1
 66
     1
 10
0.0
 20
0.0
 30
0.0
  0
VERTEX
  5
1B8
  8
LAYER_1
 10
-317.7680013252004
 20
76.89543433512236
 30
0.0
  0
VERTEX
  5
1B9
  8
LAYER_1
 10
-277.7680013252004
 20
76.89543433512236
 30
0.0
  0
SEQEND
  5
1BA
  8
LAYER_1
  0
POLYLINE
  5
84
  8
LAYER_1
 66
     1
 10
0.0
 20
0.0
 30
0.0
  0
VERTEX
  5
1BB
  8
LAYER_1
 10
-337.7680013252004
 20
136.8954343351224
 30
0.0
  0
VERTEX
  5
1BC
  8
LAYER_1
 10
-277.7680013252004
 20
76.89543433512236
 30
0.0
  0
SEQEND
  5
1BD
  8
LAYER_1
  0
POLYLINE
  5
85
  8
LAYER_1
 66
     1
 10
0.0
 20
0.0
 30
0.0
  0
VERTEX
  5
1BE
  8
LAYER_1
 10
-277.7680013252004
 20
116.8954343351224
 30
0.0
  0
VERTEX
  5
1BF
  8
LAYER_1
 10
-257.7680013252004
 20
96.89543433512236
 30
0.0
  0
SEQEND
  5
1C0
  8
LAYER_1
  0
POLYLINE
  5
86
  8
LAYER_1
 66
     1
 10
0.0
 20
0.0
 30
0.0
 70
     1
  0
VERTEX
  5
1C1
  8
LAYER_1
 10
-115.9704670416435
 20
157.6930362766516
 30
0.0
  0
VERTEX
  5
1C2
  8
LAYER_1
 10
-95.97046704164353
 20
177.6930362766516
 30
0.0
  0
VERTEX
  5
1C3
  8
LAYER_1
 10
-55.97046704164353
 20
177.6930362766516
 30
0.0
  0
VERTEX
  5
1C4
  8
LAYER_1
 10
-75.97046704164353
 20
157.6930362766516
 30
0.0
  0
SEQEND
  5
1C5
  8
LAYER_1
  0
POLYLINE
  5
87
  8
LAYER_1
 66
     1
 10
0.0
 20
0.0
 30
0.0
 70
     1
  0
VERTEX
  5
1C6
  8
LAYER_1
 10
-87.39649313155724
 20
302.2116891200155
 30
0.0
  0
VERTEX
  5
1C7
  8
LAYER_1
 10
-143.965035626481
 20
302.2116891200155
 30
0.0
  0
VERTEX
  5
1C8
  8
LAYER_1
 10
-115.6807643790191
 20
330.4959603674774
 30
0.0
  0
SEQEND
  5
1C9
  8
LAYER_1
  0
POLYLINE
  5
88
  8
LAYER_1
 66
     1
 10
0.0
 20
0.0
 30
0.0
 70
     1
  0
VERTEX
  5
1CA
  8
LAYER_1
 10
-61.06197430137357
 20
277.0128947963017
 30
0.0
  0
VERTEX
  5
1CB
  8
LAYER_1
 10
-61.06197430137371
 20
197.0128947963017
 30
0.0
  0
VERTEX
  5
1CC
  8
LAYER_1
 10
-61.0619743013734
 20
197.0128947963015
 30
0.0
  0
VERTEX
  5
1CD
  8
LAYER_1
 10
-101.0619743013737
 20
237.0128947963017
 30
0.0
  0
SEQEND
  5
1CE
  8
LAYER_1
  0
POLYLINE
  5
89
  8
LAYER_1
 66
     1
 10
0.0
 20
0.0
 30
0.0
 70
     1
  0
VERTEX
  5
1CF
  8
LAYER_1
 10
-179.86062203967
 20
155.7707769087509
 30
0.0
  0
VERTEX
  5
1D0
  8
LAYER_1
 10
-123.29162203967
 20
155.7707769087509
 30
0.0
  0
VERTEX
  5
1D1
  8
LAYER_1
 10
-123.29162203967
 20
212.3397769087509
 30
0.0
  0
VERTEX
  5
1D2
  8
LAYER_1
 10
-179.86062203967
 20
212.3397769087509
 30
0.0
  0
SEQEND
  5
1D3
  8
LAYER_1
  0
POLYLINE
  5
8A
  8
LAYER_1
 66
     1
 10
0.0
 20
0.0
 30
0.0
  0
VERTEX
  5
1D4
  8
LAYER_1
 10
-179.86062203967
 20
155.7707769087509
 30
0.0
  0
VERTEX
  5
1D5
  8
LAYER_1
 10
-123.2920795447462
 20
212.3393194036747
 30
0.0
  0
SEQEND
  5
1D6
  8
LAYER_1
  0
POLYLINE
  5
8B
  8
LAYER_1
 66
     1
 10
0.0
 20
0.0
 30
0.0
  0
VERTEX
  5
1D7
  8
LAYER_1
 10
-171.1840051242466
 20
192.5468963117357
 30
0.0
  0
VERTEX
  5
1D8
  8
LAYER_1
 10
-170.5738320689802
 20
191.9367232564693
 30
0.0
  0
SEQEND
  5
1D9
  8
LAYER_1
  0
POLYLINE
  5
8C
  8
LAYER_1
 66
     1
 10
0.0
 20
0.0
 30
0.0
 70
     1
  0
VERTEX
  5
1DA
  8
LAYER_1
 10
-179.86062203967
 20
155.7707769087509
 30
0.0
  0
VERTEX
  5
1DB
  8
LAYER_1
 10
-139.86062203967
 20
155.7707769087509
 30
0.0
  0
VERTEX
  5
1DC
  8
LAYER_1
 10
-139.86062203967
 20
195.7707769087509
 30
0.0
  0
VERTEX
  5
1DD
  8
LAYER_1
 10
-179.86062203967
 20
195.7707769087509
 30
0.0
  0
SEQEND
  5
1DE
  8
LAYER_1
  0
POLYLINE
  5
8D
  8
LAYER_1
 66
     1
 10
0.0
 20
0.0
 30
0.0
  0
VERTEX
  5
1DF
  8
LAYER_1
 10
-139.8606220396698
 20
195.7707769087511
 30
0.0
  0
VERTEX
  5
1E0
  8
LAYER_1
 10
-179.86062203967
 20
155.7707769087509
 30
0.0
  0
SEQEND
  5
1E1
  8
LAYER_1
  0
POLYLINE
  5
8E
  8
LAYER_1
 66
     1
 10
0.0
 20
0.0
 30
0.0
 70
     1
  0
VERTEX
  5
1E2
  8
LAYER_1
 10
-179.86062203967
 20
155.7707769087509
 30
0.0
  0
VERTEX
  5
1E3
  8
LAYER_1
 10
-151.57662203967
 20
155.7707769087509
 30
0.0
  0
VERTEX
  5
1E4
  8
LAYER_1
 10
-151.57662203967
 20
184.0547769087509
 30
0.0
  0
VERTEX
  5
1E5
  8
LAYER_1
 10
-179.86062203967
 20
184.0547769087509
 30
0.0
  0
SEQEND
  5
1E6
  8
LAYER_1
  0
POLYLINE
  5
8F
  8
LAYER_1
 66
     1
 10
0.0
 20
0.0
 30
0.0
  0
VERTEX
  5
1E7
  8
LAYER_1
 10
-151.57662203967
 20
184.0547769087509
 30
0.0
  0
VERTEX
  5
1E8
  8
LAYER_1
 10
-179.86062203967
 20
155.7707769087509
 30
0.0
  0
SEQEND
  5
1E9
  8
LAYER_1
  0
POLYLINE
  5
90
  8
LAYER_1
 66
     1
 10
0.0
 20
0.0
 30
0.0
 70
     1
  0
VERTEX
  5
1EA
  8
LAYER_1
 10
-179.6429938883623
 20
263.5152563355659
 30
0.0
  0
VERTEX
  5
1EB
  8
LAYER_1
 10
-139.6429938883623
 20
223.5152563355659
 30
0.0
  0
VERTEX
  5
1EC
  8
LAYER_1
 10
-179.6429938883623
 20
223.5152563355659
 30
0.0
  0
SEQEND
  5
1ED
  8
LAYER_1
  0
POLYLINE
  5
91
  8
LAYER_1
 66
     1
 10
0.0
 20
0.0
 30
0.0
 70
     1
  0
VERTEX
  5
1EE
  8
LAYER_1
 10
-177.9384640423634
 20
267.8710141360257
 30
0.0
  0
VERTEX
  5
1EF
  8
LAYER_1
 10
-157.9384640423634
 20
287.8710141360257
 30
0.0
  0
VERTEX
  5
1F0
  8
LAYER_1
 10
-137.9384640423635
 20
267.8710141360256
 30
0.0
  0
SEQEND
  5
1F1
  8
LAYER_1
  0
POLYLINE
  5
92
  8
LAYER_1
 66
     1
 10
0.0
 20
0.0
 30
0.0
 70
     1
  0
VERTEX
  5
1F2
  8
LAYER_1
 10
525.0865767385552
 20
-435.4233470536221
 30
0.0
  0
VERTEX
  5
1F3
  8
LAYER_1
 10
725.0865767385551
 20
-435.4233470536221
 30
0.0
  0
VERTEX
  5
1F4
  8
LAYER_1
 10
725.0865767385551
 20
-315.4233470536224
 30
0.0
  0
VERTEX
  5
1F5
  8
LAYER_1
 10
525.0865767385552
 20
-315.4233470536224
 30
0.0
  0
SEQEND
  5
1F6
  8
LAYER_1
  0
POLYLINE
  5
93
  8
LAYER_1
 66
     1
 10
0.0
 20
0.0
 30
0.0
  0
VERTEX
  5
1F7
  8
LAYER_1
 10
525.0865767385552
 20
-395.4233470536224
 30
0.0
  0
VERTEX
  5
1F8
  8
LAYER_1
 10
725.0865767385551
 20
-395.4233470536224
 30
0.0
  0
SEQEND
  5
1F9
  8
LAYER_1
  0
POLYLINE
  5
94
  8
LAYER_1
 66
     1
 10
0.0
 20
0.0
 30
0.0
  0
VERTEX
  5
1FA
  8
LAYER_1
 10
525.0865767385552
 20
-355.4233470536224
 30
0.0
  0
VERTEX
  5
1FB
  8
LAYER_1
 10
725.0865767385551
 20
-355.4233470536224
 30
0.0
  0
SEQEND
  5
1FC
  8
LAYER_1
  0
POLYLINE
  5
95
  8
LAYER_1
 66
     1
 10
0.0
 20
0.0
 30
0.0
  0
VERTEX
  5
1FD
  8
LAYER_1
 10
565.0865767385552
 20
-435.4233470536221
 30
0.0
  0
VERTEX
  5
1FE
  8
LAYER_1
 10
565.0865767385552
 20
-315.4233470536224
 30
0.0
  0
SEQEND
  5
1FF
  8
LAYER_1
  0
POLYLINE
  5
96
  8
LAYER_1
 66
     1
 10
0.0
 20
0.0
 30
0.0
  0
VERTEX
  5
200
  8
LAYER_1
 10
605.0865767385552
 20
-435.4233470536221
 30
0.0
  0
VERTEX
  5
201
  8
LAYER_1
 10
605.0865767385552
 20
-315.4233470536224
 30
0.0
  0
SEQEND
  5
202
  8
LAYER_1
  0
POLYLINE
  5
97
  8
LAYER_1
 66
     1
 10
0.0
 20
0.0
 30
0.0
  0
VERTEX
  5
203
  8
LAYER_1
 10
645.0865767385551
 20
-435.4233470536221
 30
0.0
  0
VERTEX
  5
204
  8
LAYER_1
 10
645.0865767385551
 20
-315.4233470536224
 30
0.0
  0
SEQEND
  5
205
  8
LAYER_1
  0
POLYLINE
  5
98
  8
LAYER_1
 66
     1
 10
0.0
 20
0.0
 30
0.0
  0
VERTEX
  5
206
  8
LAYER_1
 10
685.0865767385551
 20
-435.4233470536221
 30
0.0
  0
VERTEX
  5
207
  8
LAYER_1
 10
685.0865767385551
 20
-315.4233470536224
 30
0.0
  0
SEQEND
  5
208
  8
LAYER_1
  0
POLYLINE
  5
99
  8
LAYER_1
 66
     1
 10
0.0
 20
0.0
 30
0.0
  0
VERTEX
  5
209
  8
LAYER_1
 10
645.0865767385553
 20
-315.4233470536224
 30
0.0
  0
VERTEX
  5
20A
  8
LAYER_1
 10
525.0865767385552
 20
-435.4233470536221
 30
0.0
  0
SEQEND
  5
20B
  8
LAYER_1
  0
POLYLINE
  5
9A
  8
LAYER_1
 66
     1
 10
0.0
 20
0.0
 30
0.0
  0
VERTEX
  5
20C
  8
LAYER_1
 10
685.0865767385552
 20
-315.4233470536224
 30
0.0
  0
VERTEX
  5
20D
  8
LAYER_1
 10
565.0865767385552
 20
-435.4233470536221
 30
0.0
  0
SEQEND
  5
20E
  8
LAYER_1
  0
POLYLINE
  5
9B
  8
LAYER_1
 66
     1
 10
0.0
 20
0.0
 30
0.0
  0
VERTEX
  5
20F
  8
LAYER_1
 10
725.0865767385552
 20
-315.4233470536224
 30
0.0
  0
VERTEX
  5
210
  8
LAYER_1
 10
605.0865767385552
 20
-435.4233470536221
 30
0.0
  0
SEQEND
  5
211
  8
LAYER_1
  0
POLYLINE
  5
9C
  8
LAYER_1
 66
     1
 10
0.0
 20
0.0
 30
0.0
  0
VERTEX
  5
212
  8
LAYER_1
 10
725.0865767385552
 20
-395.4233470536224
 30
0.0
  0
VERTEX
  5
213
  8
LAYER_1
 10
685.0865767385551
 20
-435.4233470536221
 30
0.0
  0
SEQEND
  5
214
  8
LAYER_1
  0
POLYLINE
  5
9D
  8
LAYER_1
 66
     1
 10
0.0
 20
0.0
 30
0.0
  0
VERTEX
  5
215
  8
LAYER_1
 10
725.0865767385552
 20
-355.4233470536224
 30
0.0
  0
VERTEX
  5
216
  8
LAYER_1
 10
645.0865767385551
 20
-435.4233470536221
 30
0.0
  0
SEQEND
  5
217
  8
LAYER_1
  0
POLYLINE
  5
9E
  8
LAYER_1
 66
     1
 10
0.0
 20
0.0
 30
0.0
  0
VERTEX
  5
218
  8
LAYER_1
 10
605.0865767385552
 20
-315.4233470536224
 30
0.0
  0
VERTEX
  5
219
  8
LAYER_1
 10
525.0865767385552
 20
-395.4233470536224
 30
0.0
  0
SEQEND
  5
21A
  8
LAYER_1
  0
POLYLINE
  5
9F
  8
LAYER_1
 66
     1
 10
0.0
 20
0.0
 30
0.0
  0
VERTEX
  5
21B
  8
LAYER_1
 10
565.0865767385552
 20
-315.4233470536224
 30
0.0
  0
VERTEX
  5
21C
  8
LAYER_1
 10
525.0865767385552
 20
-355.4233470536224
 30
0.0
  0
SEQEND
  5
21D
  8
LAYER_1
  0
POLYLINE
  5
A0
  8
LAYER_1
 66
     1
 10
0.0
 20
0.0
 30
0.0
  0
VERTEX
  5
21E
  8
LAYER_1
 10
339.5644243673311
 20
-270.1002727747911
 30
0.0
  0
VERTEX
  5
21F
  8
LAYER_1
 10
99.56442436733121
 20
-30.10027277479088
 30
0.0
  0
SEQEND
  5
220
  8
LAYER_1
  0
POLYLINE
  5
A1
  8
LAYER_1
 66
     1
 10
0.0
 20
0.0
 30
0.0
  0
VERTEX
  5
221
  8
LAYER_1
 10
339.5644243673311
 20
-230.1002727747911
 30
0.0
  0
VERTEX
  5
222
  8
LAYER_1
 10
139.5644243673312
 20
-30.10027277479088
 30
0.0
  0
SEQEND
  5
223
  8
LAYER_1
  0
POLYLINE
  5
A2
  8
LAYER_1
 66
     1
 10
0.0
 20
0.0
 30
0.0
  0
VERTEX
  5
224
  8
LAYER_1
 10
339.5644243673311
 20
-190.100272774791
 30
0.0
  0
VERTEX
  5
225
  8
LAYER_1
 10
179.5644243673312
 20
-30.10027277479091
 30
0.0
  0
SEQEND
  5
226
  8
LAYER_1
  0
POLYLINE
  5
A3
  8
LAYER_1
 66
     1
 10
0.0
 20
0.0
 30
0.0
  0
VERTEX
  5
227
  8
LAYER_1
 10
339.5644243673311
 20
-150.100272774791
 30
0.0
  0
VERTEX
  5
228
  8
LAYER_1
 10
219.5644243673312
 20
-30.10027277479074
 30
0.0
  0
SEQEND
  5
229
  8
LAYER_1
  0
POLYLINE
  5
A4
  8
LAYER_1
 66
     1
 10
0.0
 20
0.0
 30
0.0
  0
VERTEX
  5
22A
  8
LAYER_1
 10
339.5644243673311
 20
-110.1002727747911
 30
0.0
  0
VERTEX
  5
22B
  8
LAYER_1
 10
259.5644243673312
 20
-30.10027277479074
 30
0.0
  0
SEQEND
  5
22C
  8
LAYER_1
  0
POLYLINE
  5
A5
  8
LAYER_1
 66
     1
 10
0.0
 20
0.0
 30
0.0
  0
VERTEX
  5
22D
  8
LAYER_1
 10
339.5644243673312
 20
-70.10027277479105
 30
0.0
  0
VERTEX
  5
22E
  8
LAYER_1
 10
299.5644243673311
 20
-30.10027277479099
 30
0.0
  0
SEQEND
  5
22F
  8
LAYER_1
  0
POLYLINE
  5
A6
  8
LAYER_1
 66
     1
 10
0.0
 20
0.0
 30
0.0
  0
VERTEX
  5
230
  8
LAYER_1
 10
339.5644243673311
 20
-270.1002727747913
 30
0.0
  0
VERTEX
  5
231
  8
LAYER_1
 10
339.5644243673312
 20
-70.10027277479065
 30
0.0
  0
SEQEND
  5
232
  8
LAYER_1
  0
POLYLINE
  5
A7
  8
LAYER_1
 66
     1
 10
0.0
 20
0.0
 30
0.0
  0
VERTEX
  5
233
  8
LAYER_1
 10
319.5644243673311
 20
-250.1002727747911
 30
0.0
  0
VERTEX
  5
234
  8
LAYER_1
 10
319.5644243673312
 20
-50.10027277479094
 30
0.0
  0
SEQEND
  5
235
  8
LAYER_1
  0
POLYLINE
  5
A8
  8
LAYER_1
 66
     1
 10
0.0
 20
0.0
 30
0.0
  0
VERTEX
  5
236
  8
LAYER_1
 10
299.5644243673311
 20
-270.1002727747911
 30
0.0
  0
VERTEX
  5
237
  8
LAYER_1
 10
299.5644243673312
 20
-30.10027277479097
 30
0.0
  0
SEQEND
  5
238
  8
LAYER_1
  0
POLYLINE
  5
A9
  8
LAYER_1
 66
     1
 10
0.0
 20
0.0
 30
0.0
  0
VERTEX
  5
239
  8
LAYER_1
 10
279.5644243673311
 20
-250.100272774791
 30
0.0
  0
VERTEX
  5
23A
  8
LAYER_1
 10
279.5644243673311
 20
-50.10027277479102
 30
0.0
  0
SEQEND
  5
23B
  8
LAYER_1
  0
POLYLINE
  5
AA
  8
LAYER_1
 66
     1
 10
0.0
 20
0.0
 30
0.0
  0
VERTEX
  5
23C
  8
LAYER_1
 10
259.5644243673311
 20
-270.1002727747911
 30
0.0
  0
VERTEX
  5
23D
  8
LAYER_1
 10
59.5644243673312
 20
-70.10027277479088
 30
0.0
  0
SEQEND
  5
23E
  8
LAYER_1
  0
POLYLINE
  5
AB
  8
LAYER_1
 66
     1
 10
0.0
 20
0.0
 30
0.0
  0
VERTEX
  5
23F
  8
LAYER_1
 10
299.5644243673311
 20
-270.1002727747911
 30
0.0
  0
VERTEX
  5
240
  8
LAYER_1
 10
59.56442436733116
 20
-30.10027277479071
 30
0.0
  0
SEQEND
  5
241
  8
LAYER_1
  0
POLYLINE
  5
AC
  8
LAYER_1
 66
     1
 10
0.0
 20
0.0
 30
0.0
  0
VERTEX
  5
242
  8
LAYER_1
 10
259.5644243673311
 20
-270.1002727747911
 30
0.0
  0
VERTEX
  5
243
  8
LAYER_1
 10
259.5644243673312
 20
-30.10027277479091
 30
0.0
  0
SEQEND
  5
244
  8
LAYER_1
  0
POLYLINE
  5
AD
  8
LAYER_1
 66
     1
 10
0.0
 20
0.0
 30
0.0
  0
VERTEX
  5
245
  8
LAYER_1
 10
239.5644243673311
 20
-250.100272774791
 30
0.0
  0
VERTEX
  5
246
  8
LAYER_1
 10
239.5644243673312
 20
-50.10027277479091
 30
0.0
  0
SEQEND
  5
247
  8
LAYER_1
  0
POLYLINE
  5
AE
  8
LAYER_1
 66
     1
 10
0.0
 20
0.0
 30
0.0
  0
VERTEX
  5
248
  8
LAYER_1
 10
219.5644243673311
 20
-270.1002727747911
 30
0.0
  0
VERTEX
  5
249
  8
LAYER_1
 10
59.56442436733114
 20
-110.1002727747909
 30
0.0
  0
SEQEND
  5
24A
  8
LAYER_1
  0
POLYLINE
  5
AF
  8
LAYER_1
 66
     1
 10
0.0
 20
0.0
 30
0.0
  0
VERTEX
  5
24B
  8
LAYER_1
 10
219.5644243673311
 20
-270.1002727747912
 30
0.0
  0
VERTEX
  5
24C
  8
LAYER_1
 10
219.5644243673312
 20
-30.10027277479091
 30
0.0
  0
SEQEND
  5
24D
  8
LAYER_1
  0
POLYLINE
  5
B0
  8
LAYER_1
 66
     1
 10
0.0
 20
0.0
 30
0.0
  0
VERTEX
  5
24E
  8
LAYER_1
 10
199.5644243673311
 20
-250.100272774791
 30
0.0
  0
VERTEX
  5
24F
  8
LAYER_1
 10
199.5644243673313
 20
-50.10027277479099
 30
0.0
  0
SEQEND
  5
250
  8
LAYER_1
  0
POLYLINE
  5
B1
  8
LAYER_1
 66
     1
 10
0.0
 20
0.0
 30
0.0
  0
VERTEX
  5
251
  8
LAYER_1
 10
179.5644243673311
 20
-270.1002727747911
 30
0.0
  0
VERTEX
  5
252
  8
LAYER_1
 10
59.56442436733113
 20
-150.1002727747909
 30
0.0
  0
SEQEND
  5
253
  8
LAYER_1
  0
POLYLINE
  5
B2
  8
LAYER_1
 66
     1
 10
0.0
 20
0.0
 30
0.0
  0
VERTEX
  5
254
  8
LAYER_1
 10
179.5644243673311
 20
-270.1002727747911
 30
0.0
  0
VERTEX
  5
255
  8
LAYER_1
 10
179.5644243673312
 20
-30.10027277479091
 30
0.0
  0
SEQEND
  5
256
  8
LAYER_1
  0
POLYLINE
  5
B3
  8
LAYER_1
 66
     1
 10
0.0
 20
0.0
 30
0.0
  0
VERTEX
  5
257
  8
LAYER_1
 10
159.5644243673311
 20
-250.1002727747911
 30
0.0
  0
VERTEX
  5
258
  8
LAYER_1
 10
159.5644243673313
 20
-50.10027277479099
 30
0.0
  0
SEQEND
  5
259
  8
LAYER_1
  0
POLYLINE
  5
B4
  8
LAYER_1
 66
     1
 10
0.0
 20
0.0
 30
0.0
  0
VERTEX
  5
25A
  8
LAYER_1
 10
139.5644243673311
 20
-270.100272774791
 30
0.0
  0
VERTEX
  5
25B
  8
LAYER_1
 10
59.56442436733113
 20
-190.1002727747909
 30
0.0
  0
SEQEND
  5
25C
  8
LAYER_1
  0
POLYLINE
  5
B5
  8
LAYER_1
 66
     1
 10
0.0
 20
0.0
 30
0.0
  0
VERTEX
  5
25D
  8
LAYER_1
 10
139.5644243673311
 20
-270.100272774791
 30
0.0
  0
VERTEX
  5
25E
  8
LAYER_1
 10
139.5644243673313
 20
-30.10027277479074
 30
0.0
  0
SEQEND
  5
25F
  8
LAYER_1
  0
POLYLINE
  5
B6
  8
LAYER_1
 66
     1
 10
0.0
 20
0.0
 30
0.0
  0
VERTEX
  5
260
  8
LAYER_1
 10
119.5644243673311
 20
-250.1002727747911
 30
0.0
  0
VERTEX
  5
261
  8
LAYER_1
 10
119.5644243673312
 20
-50.10027277479099
 30
0.0
  0
SEQEND
  5
262
  8
LAYER_1
  0
POLYLINE
  5
B7
  8
LAYER_1
 66
     1
 10
0.0
 20
0.0
 30
0.0
  0
VERTEX
  5
263
  8
LAYER_1
 10
99.56442436733106
 20
-270.1002727747908
 30
0.0
  0
VERTEX
  5
264
  8
LAYER_1
 10
59.56442436733113
 20
-230.1002727747909
 30
0.0
  0
SEQEND
  5
265
  8
LAYER_1
  0
POLYLINE
  5
B8
  8
LAYER_1
 66
     1
 10
0.0
 20
0.0
 30
0.0
  0
VERTEX
  5
266
  8
LAYER_1
 10
99.56442436733104
 20
-270.1002727747908
 30
0.0
  0
VERTEX
  5
267
  8
LAYER_1
 10
99.56442436733121
 20
-30.10027277479088
 30
0.0
  0
SEQEND
  5
268
  8
LAYER_1
  0
POLYLINE
  5
B9
  8
LAYER_1
 66
     1
 10
0.0
 20
0.0
 30
0.0
  0
VERTEX
  5
269
  8
LAYER_1
 10
79.56442436733103
 20
-250.1002727747908
 30
0.0
  0
VERTEX
  5
26A
  8
LAYER_1
 10
79.56442436733116
 20
-50.10027277479088
 30
0.0
  0
SEQEND
  5
26B
  8
LAYER_1
  0
POLYLINE
  5
BA
  8
LAYER_1
 66
     1
 10
0.0
 20
0.0
 30
0.0
  0
VERTEX
  5
26C
  8
LAYER_1
 10
59.56442436733103
 20
-230.1002727747909
 30
0.0
  0
VERTEX
  5
26D
  8
LAYER_1
 10
59.56442436733116
 20
-30.10027277479071
 30
0.0
  0
SEQEND
  5
26E
  8
LAYER_1
  0
POLYLINE
  5
BB
  8
LAYER_1
 66
     1
 10
0.0
 20
0.0
 30
0.0
  0
VERTEX
  5
26F
  8
LAYER_1
 10
-85.86461438316815
 20
157.6930362766516
 30
0.0
  0
VERTEX
  5
270
  8
LAYER_1
 10
-88.78909152412919
 20
160.6175134176127
 30
0.0
  0
SEQEND
  5
271
  8
LAYER_1
  0
POLYLINE
  5
BC
  8
LAYER_1
 66
     1
 10
0.0
 20
0.0
 30
0.0
 70
     1
  0
VERTEX
  5
272
  8
LAYER_1
 10
16.5232173073239
 20
-256.8590345163915
 30
0.0
  0
VERTEX
  5
273
  8
LAYER_1
 10
16.5232173073239
 20
-30.57903451639154
 30
0.0
  0
VERTEX
  5
274
  8
LAYER_1
 10
-96.616782692676
 20
-30.57903451639172
 30
0.0
  0
VERTEX
  5
275
  8
LAYER_1
 10
-96.61678269267611
 20
-256.8590345163915
 30
0.0
  0
SEQEND
  5
276
  8
LAYER_1
  0
POLYLINE
  5
BD
  8
LAYER_1
 66
     1
 10
0.0
 20
0.0
 30
0.0
  0
VERTEX
  5
277
  8
LAYER_1
 10
-40.04878269267606
 20
-256.8590345163915
 30
0.0
  0
VERTEX
  5
278
  8
LAYER_1
 10
-40.04878269267606
 20
-30.5790345163916
 30
0.0
  0
SEQEND
  5
279
  8
LAYER_1
  0
POLYLINE
  5
BE
  8
LAYER_1
 66
     1
 10
0.0
 20
0.0
 30
0.0
  0
VERTEX
  5
27A
  8
LAYER_1
 10
-68.33278269267609
 20
-256.8590345163916
 30
0.0
  0
VERTEX
  5
27B
  8
LAYER_1
 10
-68.33278269267606
 20
-30.5790345163918
 30
0.0
  0
SEQEND
  5
27C
  8
LAYER_1
  0
POLYLINE
  5
BF
  8
LAYER_1
 66
     1
 10
0.0
 20
0.0
 30
0.0
  0
VERTEX
  5
27D
  8
LAYER_1
 10
-96.61678269267608
 20
-172.0070345163916
 30
0.0
  0
VERTEX
  5
27E
  8
LAYER_1
 10
-11.76478269267608
 20
-256.8590345163915
 30
0.0
  0
SEQEND
  5
27F
  8
LAYER_1
  0
POLYLINE
  5
C0
  8
LAYER_1
 66
     1
 10
0.0
 20
0.0
 30
0.0
  0
VERTEX
  5
280
  8
LAYER_1
 10
-96.61678269267611
 20
-200.2910345163916
 30
0.0
  0
VERTEX
  5
281
  8
LAYER_1
 10
-40.04878269267607
 20
-256.8590345163915
 30
0.0
  0
SEQEND
  5
282
  8
LAYER_1
  0
POLYLINE
  5
C1
  8
LAYER_1
 66
     1
 10
0.0
 20
0.0
 30
0.0
  0
VERTEX
  5
283
  8
LAYER_1
 10
-96.61678269267611
 20
-228.5750345163916
 30
0.0
  0
VERTEX
  5
284
  8
LAYER_1
 10
-68.33278269267609
 20
-256.8590345163916
 30
0.0
  0
SEQEND
  5
285
  8
LAYER_1
  0
POLYLINE
  5
C2
  8
LAYER_1
 66
     1
 10
0.0
 20
0.0
 30
0.0
  0
VERTEX
  5
286
  8
LAYER_1
 10
-11.76678269267609
 20
-256.8590345163916
 30
0.0
  0
VERTEX
  5
287
  8
LAYER_1
 10
-11.76678269267609
 20
-30.57903451639169
 30
0.0
  0
SEQEND
  5
288
  8
LAYER_1
  0
POLYLINE
  5
C3
  8
LAYER_1
 66
     1
 10
0.0
 20
0.0
 30
0.0
  0
VERTEX
  5
289
  8
LAYER_1
 10
16.51921730732397
 20
-256.8590345163915
 30
0.0
  0
VERTEX
  5
28A
  8
LAYER_1
 10
-96.61678269267605
 20
-143.7230345163917
 30
0.0
  0
SEQEND
  5
28B
  8
LAYER_1
  0
POLYLINE
  5
C4
  8
LAYER_1
 66
     1
 10
0.0
 20
0.0
 30
0.0
  0
VERTEX
  5
28C
  8
LAYER_1
 10
16.52321730732388
 20
-228.5790345163916
 30
0.0
  0
VERTEX
  5
28D
  8
LAYER_1
 10
-96.61678269267603
 20
-115.4390345163916
 30
0.0
  0
SEQEND
  5
28E
  8
LAYER_1
  0
POLYLINE
  5
C5
  8
LAYER_1
 66
     1
 10
0.0
 20
0.0
 30
0.0
  0
VERTEX
  5
28F
  8
LAYER_1
 10
16.52321730732388
 20
-228.5750345163916
 30
0.0
  0
VERTEX
  5
290
  8
LAYER_1
 10
-96.61678269267611
 20
-228.5750345163916
 30
0.0
  0
SEQEND
  5
291
  8
LAYER_1
  0
POLYLINE
  5
C6
  8
LAYER_1
 66
     1
 10
0.0
 20
0.0
 30
0.0
  0
VERTEX
  5
292
  8
LAYER_1
 10
16.52321730732386
 20
-115.4390345163918
 30
0.0
  0
VERTEX
  5
293
  8
LAYER_1
 10
-68.33278269267609
 20
-30.58303451639154
 30
0.0
  0
SEQEND
  5
294
  8
LAYER_1
  0
POLYLINE
  5
C7
  8
LAYER_1
 66
     1
 10
0.0
 20
0.0
 30
0.0
  0
VERTEX
  5
295
  8
LAYER_1
 10
16.52321730732388
 20
-200.2910345163916
 30
0.0
  0
VERTEX
  5
296
  8
LAYER_1
 10
-96.61678269267611
 20
-200.2910345163916
 30
0.0
  0
SEQEND
  5
297
  8
LAYER_1
  0
POLYLINE
  5
C8
  8
LAYER_1
 66
     1
 10
0.0
 20
0.0
 30
0.0
  0
VERTEX
  5
298
  8
LAYER_1
 10
16.52321730732389
 20
-87.15503451639174
 30
0.0
  0
VERTEX
  5
299
  8
LAYER_1
 10
-40.04878269267613
 20
-30.58303451639162
 30
0.0
  0
SEQEND
  5
29A
  8
LAYER_1
  0
POLYLINE
  5
C9
  8
LAYER_1
 66
     1
 10
0.0
 20
0.0
 30
0.0
  0
VERTEX
  5
29B
  8
LAYER_1
 10
16.5232173073239
 20
-172.0070345163917
 30
0.0
  0
VERTEX
  5
29C
  8
LAYER_1
 10
-96.61678269267608
 20
-172.0070345163917
 30
0.0
  0
SEQEND
  5
29D
  8
LAYER_1
  0
POLYLINE
  5
CA
  8
LAYER_1
 66
     1
 10
0.0
 20
0.0
 30
0.0
  0
VERTEX
  5
29E
  8
LAYER_1
 10
16.52321730732386
 20
-143.7230345163916
 30
0.0
  0
VERTEX
  5
29F
  8
LAYER_1
 10
-96.61678269267608
 20
-143.7230345163917
 30
0.0
  0
SEQEND
  5
2A0
  8
LAYER_1
  0
POLYLINE
  5
CB
  8
LAYER_1
 66
     1
 10
0.0
 20
0.0
 30
0.0
  0
VERTEX
  5
2A1
  8
LAYER_1
 10
-11.76678269267613
 20
-30.5790345163916
 30
0.0
  0
VERTEX
  5
2A2
  8
LAYER_1
 10
16.51721730732389
 20
-58.86303451639162
 30
0.0
  0
SEQEND
  5
2A3
  8
LAYER_1
  0
POLYLINE
  5
CC
  8
LAYER_1
 66
     1
 10
0.0
 20
0.0
 30
0.0
  0
VERTEX
  5
2A4
  8
LAYER_1
 10
16.52321730732386
 20
-115.4830345163916
 30
0.0
  0
VERTEX
  5
2A5
  8
LAYER_1
 10
-96.61678269267608
 20
-115.4830345163917
 30
0.0
  0
SEQEND
  5
2A6
  8
LAYER_1
  0
POLYLINE
  5
CD
  8
LAYER_1
 66
     1
 10
0.0
 20
0.0
 30
0.0
  0
VERTEX
  5
2A7
  8
LAYER_1
 10
16.52321730732386
 20
-87.24303451639165
 30
0.0
  0
VERTEX
  5
2A8
  8
LAYER_1
 10
-96.61678269267608
 20
-87.24303451639167
 30
0.0
  0
SEQEND
  5
2A9
  8
LAYER_1
  0
POLYLINE
  5
CE
  8
LAYER_1
 66
     1
 10
0.0
 20
0.0
 30
0.0
  0
VERTEX
  5
2AA
  8
LAYER_1
 10
16.52321730732386
 20
-59.00303451639164
 30
0.0
  0
VERTEX
  5
2AB
  8
LAYER_1
 10
-96.61678269267608
 20
-59.00303451639166
 30
0.0
  0
SEQEND
  5
2AC
  8
LAYER_1
  0
POLYLINE
  5
CF
  8
LAYER_1
 66
     1
 10
0.0
 20
0.0
 30
0.0
  0
VERTEX
  5
2AD
  8
LAYER_1
 10
16.52321730732388
 20
-200.3390345163916
 30
0.0
  0
VERTEX
  5
2AE
  8
LAYER_1
 10
-96.61678269267603
 20
-87.19903451639163
 30
0.0
  0
SEQEND
  5
2AF
  8
LAYER_1
  0
POLYLINE
  5
D0
  8
LAYER_1
 66
     1
 10
0.0
 20
0.0
 30
0.0
  0
VERTEX
  5
2B0
  8
LAYER_1
 10
16.52321730732388
 20
-172.0990345163916
 30
0.0
  0
VERTEX
  5
2B1
  8
LAYER_1
 10
-96.61678269267603
 20
-58.95903451639165
 30
0.0
  0
SEQEND
  5
2B2
  8
LAYER_1
  0
POLYLINE
  5
D1
  8
LAYER_1
 66
     1
 10
0.0
 20
0.0
 30
0.0
  0
VERTEX
  5
2B3
  8
LAYER_1
 10
16.52321730732388
 20
-143.8590345163916
 30
0.0
  0
VERTEX
  5
2B4
  8
LAYER_1
 10
-96.61678269267603
 20
-30.71903451639164
 30
0.0
  0
SEQEND
  5
2B5
  8
LAYER_1
  0
POLYLINE
  5
D2
  8
LAYER_1
 66
     1
 10
0.0
 20
0.0
 30
0.0
 70
     1
  0
VERTEX
  5
2B6
  8
LAYER_1
 10
459.8840107361964
 20
-570.8433338861192
 30
0.0
  0
VERTEX
  5
2B7
  8
LAYER_1
 10
459.8840107361964
 20
-293.3433338861194
 30
0.0
  0
VERTEX
  5
2B8
  8
LAYER_1
 10
-95.11598926380361
 20
-293.3433338861192
 30
0.0
  0
VERTEX
  5
2B9
  8
LAYER_1
 10
-95.11598926380361
 20
-570.8433338861191
 30
0.0
  0
SEQEND
  5
2BA
  8
LAYER_1
  0
POLYLINE
  5
D3
  8
LAYER_1
 66
     1
 10
0.0
 20
0.0
 30
0.0
  0
VERTEX
  5
2BB
  8
LAYER_1
 10
-95.11598926380361
 20
-478.3433338861192
 30
0.0
  0
VERTEX
  5
2BC
  8
LAYER_1
 10
459.8840107361964
 20
-478.3433338861192
 30
0.0
  0
SEQEND
  5
2BD
  8
LAYER_1
  0
POLYLINE
  5
D4
  8
LAYER_1
 66
     1
 10
0.0
 20
0.0
 30
0.0
  0
VERTEX
  5
2BE
  8
LAYER_1
 10
-2.615989263803613
 20
-570.8433338861192
 30
0.0
  0
VERTEX
  5
2BF
  8
LAYER_1
 10
-2.615989263803613
 20
-293.3433338861192
 30
0.0
  0
SEQEND
  5
2C0
  8
LAYER_1
  0
POLYLINE
  5
D5
  8
LAYER_1
 66
     1
 10
0.0
 20
0.0
 30
0.0
  0
VERTEX
  5
2C1
  8
LAYER_1
 10
89.88401073619639
 20
-570.8433338861192
 30
0.0
  0
VERTEX
  5
2C2
  8
LAYER_1
 10
89.88401073619639
 20
-293.3433338861192
 30
0.0
  0
SEQEND
  5
2C3
  8
LAYER_1
  0
POLYLINE
  5
D6
  8
LAYER_1
 66
     1
 10
0.0
 20
0.0
 30
0.0
  0
VERTEX
  5
2C4
  8
LAYER_1
 10
182.3840107361964
 20
-570.8433338861192
 30
0.0
  0
VERTEX
  5
2C5
  8
LAYER_1
 10
182.3840107361964
 20
-293.3433338861192
 30
0.0
  0
SEQEND
  5
2C6
  8
LAYER_1
  0
POLYLINE
  5
D7
  8
LAYER_1
 66
     1
 10
0.0
 20
0.0
 30
0.0
  0
VERTEX
  5
2C7
  8
LAYER_1
 10
274.8840107361964
 20
-570.8433338861192
 30
0.0
  0
VERTEX
  5
2C8
  8
LAYER_1
 10
274.8840107361964
 20
-293.3433338861192
 30
0.0
  0
SEQEND
  5
2C9
  8
LAYER_1
  0
POLYLINE
  5
D8
  8
LAYER_1
 66
     1
 10
0.0
 20
0.0
 30
0.0
  0
VERTEX
  5
2CA
  8
LAYER_1
 10
367.3840107361964
 20
-570.8433338861192
 30
0.0
  0
VERTEX
  5
2CB
  8
LAYER_1
 10
367.3840107361964
 20
-293.3433338861192
 30
0.0
  0
SEQEND
  5
2CC
  8
LAYER_1
  0
POLYLINE
  5
D9
  8
LAYER_1
 66
     1
 10
0.0
 20
0.0
 30
0.0
  0
VERTEX
  5
2CD
  8
LAYER_1
 10
-95.11598926380361
 20
-385.8433338861192
 30
0.0
  0
VERTEX
  5
2CE
  8
LAYER_1
 10
459.8840107361964
 20
-385.8433338861192
 30
0.0
  0
SEQEND
  5
2CF
  8
LAYER_1
  0
ENDSEC
  0
EOF
